# generated from PmQm by Jehee Lee
:FULLY-SPECIFIED
:DEGREES
489
root 129.6799643 37.9969 -37.74979491 1.832637129 -12.81710697 -6.199778158
RightUpLeg -28.50796044 4.788965686 7.953750571
RightLeg 21.01204266 0 0
RightFoot 3.932560383 8.055292071 -3.707251541
RightToes 2.32829e-010 -1.59028e-015 9.93923e-017
Spine -8.85864 -5.1147 2.15902
Spine1 13.2645 -6.98564 6.37604
HEad -10.1836 3.71447 -0.298579
LeftShoulder1 9.93923e-017 0 1.22299e-017
LeftArm 13.6046 27.8414 -82.5725
LeftForeArm -33.7381 -20.3283 4.26896
LeftHand 0.85281 5.94591 -1.68942
RightShoulder 1.98785e-016 -4.96962e-017 1.55301e-017
RightArm 4.79104 -57.8585 79.5258
RightForeArm -25.3247 15.0762 -0.454751
RightHand 1.12097 -10.7754 -3.21477
LeftUpLeg 12.89065125 -5.275924627 15.83058114
LeftLeg 31.00107637 0 0
LeftFoot 16.34649306 12.65884403 -31.68598138
LeftToes 8.82235e-011 9.04645e-011 1.87288e-011
490
root 129.0515531 37.9889 -36.31376633 1.819032419 -14.35565241 -7.572708219
RightUpLeg -26.90359063 4.06346308 10.24543266
RightLeg 24.36986975 0 0
RightFoot -0.3323837318 10.17767433 -5.549408535
RightToes 2.32829e-010 -1.59028e-015 9.93923e-017
Spine -7.82617 -4.18321 4.85693
Spine1 13.5892 -5.81217 5.89013
HEad -11.1141 2.29806 0.547046
LeftShoulder1 9.93923e-017 0 1.22299e-017
LeftArm 2.37092 30.3708 -83.2703
LeftForeArm -21.1373 -14.5294 -2.58577
LeftHand 0.879318 6.09409 -2.61043
RightShoulder 1.98785e-016 -4.96962e-017 1.55301e-017
RightArm 3.13328 -53.2422 81.7141
RightForeArm -23.927 14.2745 0.861444
RightHand 1.12761 -10.7757 -3.38363
LeftUpLeg 7.584063604 -5.617461458 16.54966737
LeftLeg 40.34651051 1.827306946 5.745640732
LeftFoot 22.90860453 15.0152607 -26.01000464
LeftToes 8.82235e-011 9.04645e-011 1.87288e-011
491
root 128.4161561 38.2368 -34.87152775 1.673879423 -15.77982427 -7.75920874
RightUpLeg -24.02979392 4.529851334 11.11944788
RightLeg 24.83106243 0 0
RightFoot -3.022785002 11.06668514 -6.87156987
RightToes 2.32829e-010 -1.59028e-015 9.93923e-017
Spine -7.471 -3.38381 6.01816
Spine1 13.8059 -4.71277 5.16031
HEad -10.7382 0.819757 1.88153
LeftShoulder1 9.93923e-017 0 1.22299e-017
LeftArm -1.51826 33.0471 -83.3931
LeftForeArm -15.0812 -9.44565 -6.17775
LeftHand 0.93976 6.5249 -4.42647
RightShoulder 1.98785e-016 -4.96962e-017 1.55301e-017
RightArm 4.08717 -48.0352 83.6402
RightForeArm -24.1846 14.0368 1.48387
RightHand 1.15347 -10.7282 -4.27077
LeftUpLeg 1.492004534 -6.337820075 15.75204747
LeftLeg 48.22670736 2.380594101 10.34462582
LeftFoot 23.07826011 13.36448319 -22.11968386
LeftToes 8.82235e-011 9.04645e-011 1.87288e-011
492
root 127.7517018 38.6402 -33.38792175 1.406826918 -17.42468979 -7.063443703
RightUpLeg -20.34887213 4.863084228 11.19040873
RightLeg 23.43606119 0 0
RightFoot -4.755273265 12.29841172 -7.462825752
RightToes 2.32829e-010 -1.59028e-015 9.93923e-017
Spine -7.67037 -2.51773 6.47335
Spine1 13.688 -3.46845 3.80072
HEad -9.14405 -0.707546 2.91489
LeftShoulder1 9.93923e-017 0 1.22299e-017
LeftArm 1.10318 36.3486 -82.924
LeftForeArm -14.1159 -7.68597 -7.38561
LeftHand 1.00284 7.13454 -6.18465
RightShoulder 1.98785e-016 -4.96962e-017 1.55301e-017
RightArm 7.34038 -43.5911 85.2189
RightForeArm -27.2352 15.2275 0.003924370001
RightHand 1.18297 -10.6363 -5.35387
LeftUpLeg -4.453642039 -7.093293174 13.73353409
LeftLeg 53.02358715 1.637771135 12.87504949
LeftFoot 19.49821831 10.66958239 -18.76889596
LeftToes 8.82235e-011 9.04645e-011 1.87288e-011
493
root 127.093541 38.9605 -31.94816864 1.056976115 -19.51365598 -6.143790512
RightUpLeg -16.70481682 4.45021697 10.963991
RightLeg 22.04834391 0 0
RightFoot -6.707532873 14.49583404 -7.645805046
RightToes 2.32829e-010 -1.59028e-015 9.93923e-017
Spine -7.83645 -1.43061 7.21708
Spine1 13.4939 -1.89804 1.99475
HEad -7.51557 -2.16027 3.22743
LeftShoulder1 9.93923e-017 0 1.22299e-017
LeftArm 3.31971 40.2464 -81.5602
LeftForeArm -12.7848 -8.16886 -7.155
LeftHand 1.03904 7.59664 -7.14162
RightShoulder 1.98785e-016 -4.96962e-017 1.55301e-017
RightArm 13.4859 -40.2862 86.3907
RightForeArm -35.0111 17.704 -4.95831
RightHand 1.18406 -10.5387 -5.75478
LeftUpLeg -9.838803558 -7.584247039 11.49548292
LeftLeg 54.87264634 0.04136790618 12.42843293
LeftFoot 15.95995182 8.936416486 -17.49156988
LeftToes 8.82235e-011 9.04645e-011 1.87288e-011
494
root 126.45476 39.1443 -30.56392208 0.6792610002 -22.0100324 -5.312252641
RightUpLeg -13.43051995 3.954080129 10.54565159
RightLeg 21.30795886 0 0
RightFoot -8.832948005 17.24324739 -8.227583379
RightToes 2.32829e-010 -1.59028e-015 9.93923e-017
Spine -7.68166 -0.17435 8.22232
Spine1 13.3304 -0.160738 0.328532
HEad -6.7365 -3.35321 3.01867
LeftShoulder1 9.93923e-017 0 1.22299e-017
LeftArm 5.60205 44.353 -79.4347
LeftForeArm -13.5077 -8.53464 -6.98397
LeftHand 1.03691 7.58639 -7.36546
RightShoulder 1.98785e-016 -4.96962e-017 1.55301e-017
RightArm 23.2456 -37.7105 87.0416
RightForeArm -47.9143 19.9529 -13.667
RightHand 1.16294 -10.4491 -5.53183
LeftUpLeg -14.52690684 -7.407818836 9.60210663
LeftLeg 54.22941786 -1.84008289 9.92532883
LeftFoot 13.07713991 7.736583847 -17.24629132
LeftToes 8.82235e-011 9.04645e-011 1.87288e-011
495
root 125.821819 39.2712 -29.19058384 0.4411251494 -24.85056148 -4.609942289
RightUpLeg -10.42089876 3.612016391 10.00584503
RightLeg 20.6891545 0 0
RightFoot -10.91784606 20.32632908 -9.604154031
RightToes 2.32829e-010 -1.59028e-015 9.93923e-017
Spine -7.50668 1.16492 9.12466
Spine1 13.1693 1.53409 -1.02202
HEad -6.76522 -4.21988 2.61991
LeftShoulder1 9.93923e-017 0 1.22299e-017
LeftArm 7.35789 48.1467 -76.6541
LeftForeArm -14.7028 -10.3329 -5.82241
LeftHand 1.0147 7.29527 -7.40219
RightShoulder 1.98785e-016 -4.96962e-017 1.55301e-017
RightArm 27.874 -35.0547 86.6223
RightForeArm -54.4254 21.509 -20.8458
RightHand 1.13653 -10.2799 -5.47069
LeftUpLeg -18.57457675 -6.186207532 8.074319124
LeftLeg 51.15137647 -3.452969242 7.116522293
LeftFoot 9.327953103 6.218599352 -16.4747272
LeftToes 8.82235e-011 9.04645e-011 1.87288e-011
496
root 125.1952296 39.3511 -27.83989811 0.4025251178 -27.83846063 -4.168297407
RightUpLeg -7.534673477 3.195969861 9.527508966
RightLeg 19.90771532 0 0
RightFoot -13.2384054 23.44981941 -11.2281275
RightToes 2.32829e-010 -1.59028e-015 9.93923e-017
Spine -7.5167 2.4629 10.0566
Spine1 13.1436 3.04149 -2.25914
HEad -7.17577 -4.74753 2.14411
LeftShoulder1 9.93923e-017 0 1.22299e-017
LeftArm 9.71386 51.2335 -73.7732
LeftForeArm -17.2206 -12.4679 -4.32667
LeftHand 1.00603 7.18139 -7.52092
RightShoulder 1.98785e-016 -4.96962e-017 1.55301e-017
RightArm 23.4667 -31.7158 85.2526
RightForeArm -49.3998 24.6436 -22.8614
RightHand 1.11765 -10.0563 -5.86373
LeftUpLeg -21.84894482 -4.010809115 6.889742715
LeftLeg 45.38885309 -4.545489479 4.894840207
LeftFoot 5.623966868 4.85665429 -15.59369069
LeftToes 8.82235e-011 9.04645e-011 1.87288e-011
497
root 124.580863 39.3275 -26.54273864 0.4134538632 -30.57426999 -4.195291684
RightUpLeg -4.648762357 2.62549855 9.254975256
RightLeg 19.28359837 0 0
RightFoot -15.82968979 26.15046601 -12.44436858
RightToes 2.32829e-010 -1.59028e-015 9.93923e-017
Spine -7.50674 3.43618 11.2677
Spine1 13.3803 4.13737 -3.40054
HEad -7.70232 -4.95186 1.66868
LeftShoulder1 9.93923e-017 0 1.22299e-017
LeftArm 9.94681 53.4464 -71.1492
LeftForeArm -17.9221 -13.2168 -3.49391
LeftHand 1.0069 7.19274 -7.40753
RightShoulder 1.98785e-016 -4.96962e-017 1.55301e-017
RightArm 21.8119 -28.0745 84.0461
RightForeArm -46.3925 27.0863 -24.6167
RightHand 1.13036 -10.0345 -6.34538
LeftUpLeg -23.92499621 -1.766831411 6.040205066
LeftLeg 36.97205136 -5.252365622 3.194771667
LeftFoot 4.473600174 4.242216786 -14.91270529
LeftToes 8.82235e-011 9.04645e-011 1.87288e-011
498
root 123.9660596 39.2265 -25.2695084 0.4037442453 -32.71305492 -4.550905336
RightUpLeg -1.679807988 2.042636913 9.028795044
RightLeg 18.76651484 0 0
RightFoot -18.20853543 28.38306134 -13.27463932
RightToes 2.32829e-010 -1.59028e-015 9.93923e-017
Spine -7.51407 3.94656 12.4929
Spine1 13.8214 4.73415 -4.4139
HEad -8.20261 -4.98025 1.35199
LeftShoulder1 9.93923e-017 0 1.22299e-017
LeftArm 7.05531 54.8469 -68.866
LeftForeArm -15.3483 -12.2028 -3.69852
LeftHand 0.989239 6.97426 -6.78467
RightShoulder 1.98785e-016 -4.96962e-017 1.55301e-017
RightArm 20.9799 -24.6445 83.1853
RightForeArm -44.7933 28.7058 -25.8324
RightHand 1.16563 -10.225 -6.54391
LeftUpLeg -24.6439071 -0.6849395267 5.336409165
LeftLeg 26.38667195 -5.65356296 1.84420228
LeftFoot 5.767104263 3.928156906 -13.36531118
LeftToes 8.82235e-011 9.04645e-011 1.87288e-011
499
root 123.3401634 39.1368 -23.99172957 0.6530166153 -34.51201168 -4.820657375
RightUpLeg 1.068563572 1.701506225 8.598523125
RightLeg 17.94006393 0 0
RightFoot -20.16225263 30.40910847 -14.11266631
RightToes 2.32829e-010 -1.59028e-015 9.93923e-017
Spine -8.09685 4.28993 13.4388
Spine1 14.4793 5.16981 -5.55563
HEad -8.53831 -5.02505 1.2513
LeftShoulder1 9.93923e-017 0 1.22299e-017
LeftArm 3.03309 55.6042 -66.8765
LeftForeArm -11.7008 -10.2295 -4.35487
LeftHand 0.964956 6.70599 -5.97777
RightShoulder 1.98785e-016 -4.96962e-017 1.55301e-017
RightArm 20.1872 -21.9817 82.6238
RightForeArm -44.228 29.6533 -26.5435
RightHand 1.17304 -10.2993 -6.4314
LeftUpLeg -24.5474475 -0.8223803951 4.543655632
LeftLeg 14.42285391 -5.650940593 0.9416921228
LeftFoot 7.322283933 3.364628508 -11.03920187
LeftToes 8.82235e-011 9.04645e-011 1.87288e-011
500
root 122.6051381 39.0155 -22.79228829 1.678524815 -36.54762212 -5.208852721
RightUpLeg 2.793891141 1.507171247 8.25165548
RightLeg 17.57286121 0 0
RightFoot -22.33623041 32.50390992 -15.41238753
RightToes 2.32829e-010 -1.59028e-015 9.93923e-017
Spine -9.55206 4.83757 14.5931
Spine1 15.3412 5.80493 -6.97747
HEad -8.71883 -5.13068 1.30073
LeftShoulder1 9.93923e-017 0 1.22299e-017
LeftArm -0.365423 55.8509 -65.2931
LeftForeArm -9.19698 -8.25998 -4.8776
LeftHand 0.973909 6.82217 -5.55341
RightShoulder 1.98785e-016 -4.96962e-017 1.55301e-017
RightArm 19.5693 -20.2135 82.2798
RightForeArm -44.1874 29.9719 -26.7769
RightHand 1.14635 -10.1704 -6.21836
LeftUpLeg -24.99918371 -0.5473014783 3.675791501
LeftLeg 3.899947677 -5.379080269 0.6043058042
LeftFoot 7.219515672 2.661136758 -9.817995624
LeftToes 8.82235e-011 9.04645e-011 1.87288e-011
501
root 121.5074488 38.7936 -21.85246677 3.303515259 -38.79665774 -5.917369899
RightUpLeg 3.569052539 1.072518492 8.523976316
RightLeg 18.32540541 0 0
RightFoot -24.69724975 34.76601678 -17.45086623
RightToes 2.32829e-010 -1.59028e-015 9.93923e-017
Spine -11.2292 5.50976 16.0989
Spine1 16.0748 6.49691 -8.38122
HEad -8.96868 -5.25482 1.45882
LeftShoulder1 9.93923e-017 0 1.22299e-017
LeftArm -3.43556 55.6358 -64.3967
LeftForeArm -7.41591 -6.44362 -5.20002
LeftHand 1.00257 7.13443 -5.52391
RightShoulder 1.98785e-016 -4.96962e-017 1.55301e-017
RightArm 19.2962 -19.3455 82.2059
RightForeArm -44.2739 29.6849 -26.5628
RightHand 1.13498 -10.1113 -6.14149
LeftUpLeg -27.25546484 -0.5801501654 3.614307926
LeftLeg -0.2793490217 -3.416356211 0.1707221284
LeftFoot 4.448649669 1.970703354 -10.40377889
LeftToes 8.82235e-011 9.04645e-011 1.87288e-011
502
root 120.3693984 38.606 -20.92417715 4.313346926 -40.72789461 -6.009640766
RightUpLeg 4.303750346 0.5355052978 8.076454714
RightLeg 19.67157592 0 0
RightFoot -26.08284019 37.152073 -19.20492051
RightToes 2.32829e-010 -1.59028e-015 9.93923e-017
Spine -12.1546 5.85722 16.6885
Spine1 16.4674 7.00495 -9.47714
HEad -9.44381 -5.42776 1.65421
LeftShoulder1 9.93923e-017 0 1.22299e-017
LeftArm -6.6077 55.0293 -64.3725
LeftForeArm -5.50597 -4.71902 -5.34881
LeftHand 1.0012 7.1207 -5.41116
RightShoulder 1.98785e-016 -4.96962e-017 1.55301e-017
RightArm 19.1526 -19.652 82.4421
RightForeArm -44.4089 28.9425 -26.0225
RightHand 1.15452 -10.207 -6.29791
LeftUpLeg -28.92775253 -0.8338821669 3.242128151
LeftLeg -0.4034012956 -1.470340853 -0.2489661101
LeftFoot 2.066762249 1.43535035 -10.66577984
LeftToes 8.82235e-011 9.04645e-011 1.87288e-011
